<svg xmlns="http://www.w3.org/2000/svg" xmlns:xlink="http://www.w3.org/1999/xlink" width="302" height="50" viewBox="0 0 302 50">
  <defs>
    <clipPath id="clip-path">
      <rect id="사각형_20810" data-name="사각형 20810" width="302" height="50" fill="none"/>
    </clipPath>
  </defs>
  <g id="logo" transform="translate(-0.649 0.191)">
    <g id="그룹_40952" data-name="그룹 40952" transform="translate(0.649 -0.191)" clip-path="url(#clip-path)">
      <path id="패스_36559" data-name="패스 36559" d="M41.38.571A.763.763,0,0,0,40.624,0H22.586a5.882,5.882,0,0,0-2.9.765L2.9,10.3A5.711,5.711,0,0,0,0,15.247V34.321a5.694,5.694,0,0,0,2.9,4.945l4.577,2.6a1.291,1.291,0,0,0,1.277,0L18.8,36.116a.394.394,0,0,0,0-.687l-7.475-4.248V18.448l.22-.183L21.2,12.774,41.016,1.44A.749.749,0,0,0,41.38.571" transform="translate(-0.674 0.211)" fill="#00479b"/>
      <path id="패스_36560" data-name="패스 36560" d="M49.647,43.565V24.491a5.7,5.7,0,0,0-2.9-4.946l-4.577-2.6a1.291,1.291,0,0,0-1.277,0L30.843,22.7a.394.394,0,0,0,0,.687L38.32,27.63V40.365l-.222.183-9.655,5.49L8.631,57.373a.749.749,0,0,0-.364.869.763.763,0,0,0,.756.571H27.061a5.887,5.887,0,0,0,2.9-.765L46.746,48.51a5.712,5.712,0,0,0,2.9-4.946" transform="translate(-5.15 -9.024)" fill="#00a2a2"/>
      <path id="패스_36561" data-name="패스 36561" d="M31.147,39.829v8.313a.315.315,0,0,0,.472.268l7.875-4.489V34.831l-8.14,4.646a.4.4,0,0,0-.206.352" transform="translate(-17.593 -18.961)" fill="#00a2a2"/>
      <path id="패스_36562" data-name="패스 36562" d="M57.765,39.829v8.313a.315.315,0,0,1-.472.268L49.419,43.92V34.831l8.14,4.646a.4.4,0,0,1,.206.352" transform="translate(-27.519 -18.961)" fill="#00479b"/>
      <path id="패스_36563" data-name="패스 36563" d="M151.188,17.749h-2.962V33.1h2.962V25.564h2.927V22.7h-2.927Z" transform="translate(-81.192 -9.558)" fill="#00479b"/>
      <path id="패스_36564" data-name="패스 36564" d="M117.624,30.026a6.071,6.071,0,0,0,4.541,0,6.5,6.5,0,0,0,1.888-1.168,5.971,5.971,0,0,0,1.264-1.743,4.954,4.954,0,0,0,.011-4.2,6.073,6.073,0,0,0-.7-1.087h2.142v-2.5h-5.251v-2.51h-3.236v2.51h-5.528v2.5h2.419a5.443,5.443,0,0,0-.681,1.087A4.691,4.691,0,0,0,114,25.008a4.872,4.872,0,0,0,.474,2.106,5.955,5.955,0,0,0,1.265,1.747,6.568,6.568,0,0,0,1.886,1.165m-.787-5.018a2.811,2.811,0,0,1,.9-2.082,3.082,3.082,0,0,1,4.31,0,2.851,2.851,0,0,1,0,4.165,3.082,3.082,0,0,1-4.31,0,2.813,2.813,0,0,1-.9-2.083" transform="translate(-61.92 -9.047)" fill="#00479b"/>
      <path id="패스_36565" data-name="패스 36565" d="M121.868,49.506H118.88v7.542h17.093V54.453h-14.1Z" transform="translate(-65.251 -27.038)" fill="#00479b"/>
      <path id="패스_36566" data-name="패스 36566" d="M184.056,19.008H166.415v2.6h14.679v5.9h-16v2.546h8.677V32.5h-7.6v2.619h14.93v5.415h2.962V32.5H176.7v-2.45h8.678V27.5h-1.325Z" transform="translate(-90.352 -10.251)" fill="#00479b"/>
      <path id="패스_36567" data-name="패스 36567" d="M215.731,42.222h8.676v.829q-.331.09-.626.2a5.968,5.968,0,0,0-1.736,1.057,5.188,5.188,0,0,0-1.176,1.573,4.383,4.383,0,0,0,0,3.816,5.192,5.192,0,0,0,1.178,1.574,5.822,5.822,0,0,0,1.722,1.043,5.873,5.873,0,0,0,4.215,0,5.867,5.867,0,0,0,1.724-1.044,5.193,5.193,0,0,0,1.176-1.573,4.382,4.382,0,0,0,0-3.816,5.186,5.186,0,0,0-1.178-1.574,6.081,6.081,0,0,0-1.712-1.055,4.715,4.715,0,0,0-.65-.207v-.824h8.678V39.651H215.731Zm10.146,7.987a2.609,2.609,0,0,1-1.845-.718,2.276,2.276,0,0,1,0-3.4,2.726,2.726,0,0,1,3.689,0,2.274,2.274,0,0,1,0,3.4,2.607,2.607,0,0,1-1.844.718" transform="translate(-117.861 -21.614)" fill="#00479b"/>
      <path id="패스_36568" data-name="패스 36568" d="M219.006,27.359l7.726-5.16,7.637,5.1.089.059,1.7-2.079L229.7,21.092h6.054V18.57H217.71v2.522h6.054l-6.35,4.119-.109.069,1.632,2Z" transform="translate(-118.716 -10.01)" fill="#00479b"/>
      <path id="패스_36569" data-name="패스 36569" d="M277.232,22.151l7.186,8.967.07.088,2.166-1.567.1-.071-9.43-11.639-.092-.113-9.47,11.657-.078.1,2.344,1.635Z" transform="translate(-146.083 -9.594)" fill="#00479b"/>
      <path id="패스_36570" data-name="패스 36570" d="M278.015,41.676h-2.988v6.6h-8.652v2.595h20.292V48.273h-8.652Z" transform="translate(-145.371 -22.728)" fill="#00479b"/>
      <path id="패스_36571" data-name="패스 36571" d="M327.489,25.316h2.339v7.631h2.862v-15.2h-2.862v5h-2.339v-4.6H324.6v3.274h-3.716V18.143H318v12.27h9.489Zm-6.6-1.378H324.6v3.928h-3.716Z" transform="translate(-173.415 -9.558)" fill="#00479b"/>
      <path id="패스_36572" data-name="패스 36572" d="M324.656,49.506h-2.987v7.542h18.392V54.453H324.656Z" transform="translate(-175.408 -27.038)" fill="#00479b"/>
      <rect id="사각형_20808" data-name="사각형 20808" width="2.911" height="15.198" transform="translate(161.266 8.191)" fill="#00479b"/>
      <path id="패스_36573" data-name="패스 36573" d="M381.249,22.315V19.792h-5.276V17.257h-3.187v2.535h-5.528v2.523h5.288L367.018,34.26l-.049.107,2.46,1.055.107.047L374.4,24.7l4.819,10.665.048.106,2.408-1.055.109-.047-5.575-12.052Z" transform="translate(-200.016 -9.288)" fill="#00479b"/>
      <path id="패스_36574" data-name="패스 36574" d="M398.379,24.642h-3.951v2.595h3.951V39.79h2.962V17.749h-2.962Z" transform="translate(-214.931 -9.559)" fill="#00479b"/>
      <path id="패스_36575" data-name="패스 36575" d="M419.228,21.574h8.4V35.431h2.963V18.952H419.228Z" transform="translate(-228.403 -10.221)" fill="#00479b"/>
      <rect id="사각형_20809" data-name="사각형 20809" width="2.962" height="22.041" transform="translate(206.58 8.191)" fill="#00479b"/>
      <path id="패스_36576" data-name="패스 36576" d="M488.024,47.542H477.107v-1.87h-2.913v9.315h16.741V45.672h-2.911Zm-10.917,2.523h10.917v2.376H477.107Z" transform="translate(-258.261 -24.928)" fill="#00479b"/>
      <path id="패스_36577" data-name="패스 36577" d="M485.356,22.229h-3.819a5.089,5.089,0,0,0-.256-.67,6.086,6.086,0,0,0-1.327-1.857,5.957,5.957,0,0,0-1.977-1.244,6.824,6.824,0,0,0-4.813,0,5.94,5.94,0,0,0-1.976,1.244,6.03,6.03,0,0,0-1.327,1.857,5.25,5.25,0,0,0-.487,2.215,5.159,5.159,0,0,0,.487,2.2,6.047,6.047,0,0,0,1.325,1.845,5.916,5.916,0,0,0,1.977,1.243,6.811,6.811,0,0,0,4.813,0,5.93,5.93,0,0,0,1.979-1.243,6.1,6.1,0,0,0,1.325-1.856,5.454,5.454,0,0,0,.388-1.163h3.687v4.873h2.962V17.749h-2.962Zm-11.063,4.465A3.676,3.676,0,0,1,473.227,26a3.164,3.164,0,0,1-.725-1.008,2.953,2.953,0,0,1,0-2.439,3.187,3.187,0,0,1,.725-1.01,3.73,3.73,0,0,1,1.066-.693,3.276,3.276,0,0,1,2.555,0,3.748,3.748,0,0,1,1.068.693,3.2,3.2,0,0,1,.724,1.008,2.958,2.958,0,0,1,0,2.441A3.162,3.162,0,0,1,477.916,26a3.706,3.706,0,0,1-1.068.693,3.272,3.272,0,0,1-2.555,0" transform="translate(-255.644 -9.558)" fill="#00479b"/>
      <path id="패스_36578" data-name="패스 36578" d="M528.406,28.632a7.646,7.646,0,0,0,2.248,1.4,7.37,7.37,0,0,0,5.466,0,7.616,7.616,0,0,0,2.248-1.4,6.54,6.54,0,0,0,1.528-2.066,6.062,6.062,0,0,0,0-5.093,6.515,6.515,0,0,0-1.528-2.069,7.63,7.63,0,0,0-2.247-1.4,7.368,7.368,0,0,0-5.468,0,7.619,7.619,0,0,0-2.248,1.4,6.514,6.514,0,0,0-1.528,2.069,6.057,6.057,0,0,0,0,5.093,6.565,6.565,0,0,0,1.528,2.068m3.4-.981a4.074,4.074,0,0,1-1.315-.864,3.944,3.944,0,0,1-.888-1.242,3.737,3.737,0,0,1,0-3.055,3.956,3.956,0,0,1,.89-1.247,4.041,4.041,0,0,1,1.313-.859,4.165,4.165,0,0,1,3.161,0,4.026,4.026,0,0,1,1.313.862,3.924,3.924,0,0,1,.887,1.244,3.718,3.718,0,0,1,0,3.055,3.963,3.963,0,0,1-.888,1.245,4.089,4.089,0,0,1-1.313.86,4.178,4.178,0,0,1-3.16,0" transform="translate(-286.574 -9.408)" fill="#00479b"/>
      <path id="패스_36579" data-name="패스 36579" d="M519.584,52.4h4.126v5.046h2.937V52.4h6.166v5.046h2.937V52.4h4.126V49.832H519.584Z" transform="translate(-282.918 -27.218)" fill="#00479b"/>
      <path id="패스_36580" data-name="패스 36580" d="M581.865,28.349h7.627v-2.5H574.487v-1.22h14.7V22.209h-14.7v-1.2h14.7v-2.5H571.55v9.833h7.327v1.368h-8.652v2.521h5.384a5.86,5.86,0,0,0-.8,1.211,4.752,4.752,0,0,0-.486,2.119,4.9,4.9,0,0,0,.486,2.142,5.865,5.865,0,0,0,1.3,1.757,6.341,6.341,0,0,0,8.516,0,5.8,5.8,0,0,0,1.3-1.757,4.879,4.879,0,0,0,.487-2.142,4.721,4.721,0,0,0-.487-2.118,5.791,5.791,0,0,0-.795-1.212h5.384V29.716h-8.652ZM579.142,38.4a3.541,3.541,0,0,1-1.014-.652,3.466,3.466,0,0,1-.7-.99,2.826,2.826,0,0,1,0-2.388,3.408,3.408,0,0,1,.7-.984,3.512,3.512,0,0,1,1.016-.657,3.17,3.17,0,0,1,2.457,0,3.564,3.564,0,0,1,1.014.654,3.467,3.467,0,0,1,.7.989,2.816,2.816,0,0,1,0,2.387,3.433,3.433,0,0,1-.7.987,3.519,3.519,0,0,1-1.015.655,3.181,3.181,0,0,1-2.457,0" transform="translate(-310.426 -9.981)" fill="#00479b"/>
      <path id="패스_36581" data-name="패스 36581" d="M628.286,56.148v-3.74H625.3V58.7h17.718V56.148Z" transform="translate(-340.343 -28.635)" fill="#00479b"/>
      <path id="패스_36582" data-name="패스 36582" d="M625.849,32.944h2.986V29.1h7.942V30.62h-4.5v2.4h4.5V34.79h2.961V17.6h-2.961v9.009h-4.2a6.126,6.126,0,0,0,.87-1.311,4.949,4.949,0,0,0,.486-2.166,5.127,5.127,0,0,0-.485-2.19,5.85,5.85,0,0,0-1.328-1.811,6.651,6.651,0,0,0-1.961-1.2,6.435,6.435,0,0,0-4.74,0,6.649,6.649,0,0,0-1.963,1.2,5.857,5.857,0,0,0-1.327,1.809,5.128,5.128,0,0,0-.486,2.19,4.955,4.955,0,0,0,.487,2.166,6.145,6.145,0,0,0,.87,1.311h-2.632v2.5h5.477Zm-1.29-9.814a2.8,2.8,0,0,1,.262-1.194,3.5,3.5,0,0,1,.7-.989,3.267,3.267,0,0,1,1.026-.678,3.224,3.224,0,0,1,2.485,0,3.267,3.267,0,0,1,1.026.678,3.454,3.454,0,0,1,.7.989,2.819,2.819,0,0,1,0,2.388,3.477,3.477,0,0,1-.7.989,3.289,3.289,0,0,1-1.026.675,3.23,3.23,0,0,1-2.485,0,3.3,3.3,0,0,1-1.026-.675,3.49,3.49,0,0,1-.7-.989,2.771,2.771,0,0,1-.264-1.194" transform="translate(-337.667 -9.408)" fill="#00479b"/>
      <path id="패스_36583" data-name="패스 36583" d="M118.789,77.659h1.1v3.386h.095l3.015-3.386h1.377l-2.905,3.2,2.916,3.9h-1.324l-2.317-3.168-.856.967v2.2h-1.1Z" transform="translate(-65.201 -42.535)" fill="#00479b"/>
      <path id="패스_36584" data-name="패스 36584" d="M132.5,86.608a2.305,2.305,0,0,1-.888-.965,3.468,3.468,0,0,1,0-2.881,2.3,2.3,0,0,1,.888-.967,2.733,2.733,0,0,1,2.653,0,2.3,2.3,0,0,1,.884.967,3.487,3.487,0,0,1,0,2.881,2.3,2.3,0,0,1-.884.965,2.736,2.736,0,0,1-2.653,0m2.129-.78a1.5,1.5,0,0,0,.488-.676,2.87,2.87,0,0,0,0-1.9,1.526,1.526,0,0,0-.488-.679,1.262,1.262,0,0,0-.8-.253,1.28,1.28,0,0,0-.8.251,1.537,1.537,0,0,0-.491.679,2.807,2.807,0,0,0,0,1.9,1.523,1.523,0,0,0,.491.676,1.411,1.411,0,0,0,1.6,0" transform="translate(-71.999 -44.622)" fill="#00479b"/>
      <path id="패스_36585" data-name="패스 36585" d="M144.573,81.508H145.6v.849h.057a1.347,1.347,0,0,1,.78-.818,1.576,1.576,0,0,1,.589-.11,4,4,0,0,1,.454.024v1c-.061-.014-.145-.028-.25-.042a2.327,2.327,0,0,0-.3-.021,1.419,1.419,0,0,0-.664.153,1.144,1.144,0,0,0-.462.428,1.172,1.172,0,0,0-.167.618v3.244h-1.063Z" transform="translate(-79.207 -44.61)" fill="#00479b"/>
      <path id="패스_36586" data-name="패스 36586" d="M152.881,86.614a2.254,2.254,0,0,1-.894-.955,3.156,3.156,0,0,1-.312-1.442,3.2,3.2,0,0,1,.312-1.44,2.336,2.336,0,0,1,.878-.977,2.451,2.451,0,0,1,1.31-.348,2.593,2.593,0,0,1,1.2.279,2.086,2.086,0,0,1,.875.879,3.114,3.114,0,0,1,.331,1.517V84.5h-4.31v-.784h3.264a1.539,1.539,0,0,0-.167-.724,1.229,1.229,0,0,0-.474-.5,1.361,1.361,0,0,0-.7-.18,1.4,1.4,0,0,0-.761.208,1.428,1.428,0,0,0-.512.551,1.6,1.6,0,0,0-.185.745v.606a1.963,1.963,0,0,0,.19.9,1.351,1.351,0,0,0,.535.574,1.573,1.573,0,0,0,.8.2,1.685,1.685,0,0,0,.523-.076,1.226,1.226,0,0,0,.4-.208,1,1,0,0,0,.254-.3h1.077a1.8,1.8,0,0,1-.426.761,2.023,2.023,0,0,1-.778.506,2.959,2.959,0,0,1-1.052.178,2.693,2.693,0,0,1-1.372-.338" transform="translate(-83.065 -44.622)" fill="#00479b"/>
      <path id="패스_36587" data-name="패스 36587" d="M166.981,84.472l-.735.05a1.659,1.659,0,0,0-.835.245.674.674,0,0,0-.3.587.686.686,0,0,0,.131.423.794.794,0,0,0,.361.262,1.476,1.476,0,0,0,.53.089,1.556,1.556,0,0,0,.737-.167,1.194,1.194,0,0,0,.481-.442,1.135,1.135,0,0,0,.165-.594l0-1.681a1,1,0,0,0-.125-.515.783.783,0,0,0-.371-.322,1.5,1.5,0,0,0-.606-.109,1.526,1.526,0,0,0-.532.085,1.024,1.024,0,0,0-.378.237.781.781,0,0,0-.2.354h-1.06a1.5,1.5,0,0,1,.336-.787,1.862,1.862,0,0,1,.766-.541,2.954,2.954,0,0,1,1.109-.194,3.145,3.145,0,0,1,.993.156,1.68,1.68,0,0,1,.8.572,1.772,1.772,0,0,1,.33,1.13v3.535h-1.036v-.728H167.5a1.44,1.44,0,0,1-.321.411,1.662,1.662,0,0,1-.532.312,2.09,2.09,0,0,1-.746.123,2.219,2.219,0,0,1-.933-.19,1.523,1.523,0,0,1-.655-.557,1.56,1.56,0,0,1-.24-.875,1.274,1.274,0,0,1,.569-1.175,3.146,3.146,0,0,1,1.453-.416q.246-.017.579-.035l.625-.031c.127-.007.219-.01.278-.01l.014.762q-.19.006-.611.036" transform="translate(-89.801 -44.622)" fill="#00479b"/>
      <path id="패스_36588" data-name="패스 36588" d="M185.565,78.853a1.209,1.209,0,0,0-.518-.356,2.093,2.093,0,0,0-.735-.121,1.988,1.988,0,0,0-.761.135,1.155,1.155,0,0,0-.5.375.875.875,0,0,0-.178.537.766.766,0,0,0,.37.691,3.146,3.146,0,0,0,.94.383l.7.18a4.865,4.865,0,0,1,1.01.36,2.11,2.11,0,0,1,.759.633,1.627,1.627,0,0,1,.3,1,1.888,1.888,0,0,1-.317,1.078,2.1,2.1,0,0,1-.92.738,3.985,3.985,0,0,1-2.833.014,2.164,2.164,0,0,1-.931-.72,2.045,2.045,0,0,1-.373-1.109h1.1a1.077,1.077,0,0,0,.248.625,1.319,1.319,0,0,0,.567.383,2.267,2.267,0,0,0,.783.128,2.217,2.217,0,0,0,.821-.144,1.313,1.313,0,0,0,.566-.4.942.942,0,0,0,.2-.6.748.748,0,0,0-.171-.5,1.27,1.27,0,0,0-.463-.332,4.829,4.829,0,0,0-.733-.245l-.849-.225a3.2,3.2,0,0,1-1.394-.7,1.547,1.547,0,0,1-.486-1.177,1.766,1.766,0,0,1,.337-1.066,2.207,2.207,0,0,1,.917-.719,3.216,3.216,0,0,1,1.31-.256,3.174,3.174,0,0,1,1.293.251,2.109,2.109,0,0,1,.891.7,1.784,1.784,0,0,1,.334,1.014h-1.06a1.019,1.019,0,0,0-.228-.557" transform="translate(-99.31 -42.416)" fill="#00479b"/>
      <path id="패스_36589" data-name="패스 36589" d="M197.169,77.659l2.289,5.5h.085l2.285-5.5h1.334v7.1h-1.046V79.634h-.067l-2.119,5.112h-.866l-2.12-5.122h-.06v5.132h-1.05v-7.1Z" transform="translate(-107.053 -42.535)" fill="#00479b"/>
      <path id="패스_36590" data-name="패스 36590" d="M214.994,77.659h4.528v.929h-3.433V80.74h3.2v.925h-3.2v2.162h3.472v.929h-4.567Z" transform="translate(-117.461 -42.535)" fill="#00479b"/>
      <path id="패스_36591" data-name="패스 36591" d="M229.949,82.462a1.157,1.157,0,0,0-.688-.185,1.465,1.465,0,0,0-.535.092.882.882,0,0,0-.371.257.545.545,0,0,0-.132.366.5.5,0,0,0,.2.407,1.594,1.594,0,0,0,.643.269l.866.194a2.306,2.306,0,0,1,1.109.526,1.219,1.219,0,0,1,.367.916,1.433,1.433,0,0,1-.266.854,1.743,1.743,0,0,1-.766.584,3.012,3.012,0,0,1-1.18.212,3.092,3.092,0,0,1-1.112-.182,1.682,1.682,0,0,1-.745-.532,1.718,1.718,0,0,1-.34-.849h1.088a.786.786,0,0,0,.344.544,1.369,1.369,0,0,0,.755.18,1.826,1.826,0,0,0,.6-.09.879.879,0,0,0,.395-.255.578.578,0,0,0,.137-.383.531.531,0,0,0-.2-.428,1.52,1.52,0,0,0-.632-.265l-.845-.184a2.183,2.183,0,0,1-1.1-.53,1.252,1.252,0,0,1-.379-.928,1.39,1.39,0,0,1,.262-.832,1.7,1.7,0,0,1,.738-.565,2.788,2.788,0,0,1,1.094-.2,2.679,2.679,0,0,1,1.039.187,1.668,1.668,0,0,1,.706.53,1.589,1.589,0,0,1,.308.8h-1.021a.847.847,0,0,0-.336-.511" transform="translate(-123.983 -44.622)" fill="#00479b"/>
      <path id="패스_36592" data-name="패스 36592" d="M244.79,84.508a1.944,1.944,0,0,1-.817-.707,1.864,1.864,0,0,1-.287-1.023,1.586,1.586,0,0,1,.178-.752,2.228,2.228,0,0,1,.486-.613,7.406,7.406,0,0,1,.794-.606L246.309,80a2.131,2.131,0,0,0,.342-.268,1,1,0,0,0,.208-.3.882.882,0,0,0,.074-.367.617.617,0,0,0-.1-.329.783.783,0,0,0-.286-.267.874.874,0,0,0-.852.013.854.854,0,0,0-.3.309.786.786,0,0,0-.109.4.938.938,0,0,0,.1.412,2.485,2.485,0,0,0,.255.415q.153.2.424.525l.155.187,3.352,3.937h-1.2l-2.775-3.2-.246-.284q-.369-.43-.581-.714a2.947,2.947,0,0,1-.349-.609,1.735,1.735,0,0,1-.137-.684,1.664,1.664,0,0,1,.229-.872,1.567,1.567,0,0,1,.64-.6,2.245,2.245,0,0,1,1.9-.005,1.544,1.544,0,0,1,.629.565,1.456,1.456,0,0,1,.22.776,1.624,1.624,0,0,1-.113.61,1.842,1.842,0,0,1-.324.524,3.027,3.027,0,0,1-.521.464L245.5,81.686a2.306,2.306,0,0,0-.43.392,1.663,1.663,0,0,0-.243.376.764.764,0,0,0-.077.3,1.06,1.06,0,0,0,.159.565,1.132,1.132,0,0,0,.456.412,1.447,1.447,0,0,0,.673.152,1.943,1.943,0,0,0,1.037-.308,2.312,2.312,0,0,0,.806-.867,2.591,2.591,0,0,0,.308-1.272h.958A3.863,3.863,0,0,1,249,82.551a2.661,2.661,0,0,1-.352.77,2.819,2.819,0,0,1-.469.514l-.12.111c-.04.037-.081.074-.123.111a2.375,2.375,0,0,1-.868.526,3.1,3.1,0,0,1-1.04.182,2.812,2.812,0,0,1-1.238-.256" transform="translate(-133.047 -42.441)" fill="#00479b"/>
      <path id="패스_36593" data-name="패스 36593" d="M266.919,78.853a1.209,1.209,0,0,0-.518-.356,2.092,2.092,0,0,0-.735-.121,1.987,1.987,0,0,0-.761.135,1.155,1.155,0,0,0-.5.375.875.875,0,0,0-.178.537.766.766,0,0,0,.37.691,3.141,3.141,0,0,0,.94.383l.7.18a4.866,4.866,0,0,1,1.01.36,2.1,2.1,0,0,1,.758.633,1.624,1.624,0,0,1,.305,1,1.888,1.888,0,0,1-.317,1.078,2.1,2.1,0,0,1-.919.738,3.985,3.985,0,0,1-2.833.014,2.164,2.164,0,0,1-.931-.72,2.044,2.044,0,0,1-.373-1.109h1.1a1.079,1.079,0,0,0,.248.625,1.324,1.324,0,0,0,.568.383,2.267,2.267,0,0,0,.783.128,2.217,2.217,0,0,0,.821-.144,1.317,1.317,0,0,0,.567-.4.945.945,0,0,0,.2-.6.748.748,0,0,0-.171-.5,1.27,1.27,0,0,0-.463-.332,4.834,4.834,0,0,0-.733-.245l-.849-.225a3.2,3.2,0,0,1-1.394-.7,1.547,1.547,0,0,1-.486-1.177,1.766,1.766,0,0,1,.337-1.066,2.208,2.208,0,0,1,.917-.719,3.214,3.214,0,0,1,1.31-.256,3.174,3.174,0,0,1,1.293.251,2.109,2.109,0,0,1,.891.7,1.783,1.783,0,0,1,.334,1.014h-1.06a1.023,1.023,0,0,0-.228-.557" transform="translate(-143.502 -42.416)" fill="#00479b"/>
      <path id="패스_36594" data-name="패스 36594" d="M279.022,80.879h-2.958v-.835h2.958Zm-1.1-2.11V83.8a.9.9,0,0,0,.088.438.482.482,0,0,0,.226.213.841.841,0,0,0,.334.059q.137,0,.528-.021v.9a4.351,4.351,0,0,1-.658.045,1.921,1.921,0,0,1-.791-.159,1.342,1.342,0,0,1-.574-.478,1.365,1.365,0,0,1-.216-.783V78.769Z" transform="translate(-150.635 -43.145)" fill="#00479b"/>
      <path id="패스_36595" data-name="패스 36595" d="M287.075,84.472l-.735.05a1.659,1.659,0,0,0-.834.245.674.674,0,0,0-.3.587.685.685,0,0,0,.131.423.794.794,0,0,0,.361.262,1.474,1.474,0,0,0,.53.089,1.556,1.556,0,0,0,.737-.167,1.194,1.194,0,0,0,.481-.442,1.135,1.135,0,0,0,.165-.594l0-1.681a1,1,0,0,0-.125-.515.782.782,0,0,0-.371-.322,1.5,1.5,0,0,0-.606-.109,1.526,1.526,0,0,0-.532.085,1.021,1.021,0,0,0-.378.237.777.777,0,0,0-.2.354h-1.06a1.5,1.5,0,0,1,.336-.787,1.862,1.862,0,0,1,.766-.541,2.954,2.954,0,0,1,1.109-.194,3.147,3.147,0,0,1,.993.156,1.681,1.681,0,0,1,.8.572,1.772,1.772,0,0,1,.33,1.13v3.535h-1.036v-.728h-.042a1.448,1.448,0,0,1-.321.411,1.66,1.66,0,0,1-.532.312,2.089,2.089,0,0,1-.746.123,2.219,2.219,0,0,1-.933-.19,1.52,1.52,0,0,1-.655-.557,1.56,1.56,0,0,1-.24-.875,1.275,1.275,0,0,1,.569-1.175,3.145,3.145,0,0,1,1.452-.416q.247-.017.579-.035l.625-.031c.127-.007.219-.01.278-.01l.014.762q-.19.006-.611.036" transform="translate(-155.037 -44.622)" fill="#00479b"/>
      <path id="패스_36596" data-name="패스 36596" d="M296.753,81.508h1.028v.849h.057a1.342,1.342,0,0,1,.3-.5,1.357,1.357,0,0,1,.479-.322,1.58,1.58,0,0,1,.59-.11,3.991,3.991,0,0,1,.454.024v1c-.061-.014-.144-.028-.249-.042a2.328,2.328,0,0,0-.3-.021,1.42,1.42,0,0,0-.664.153,1.145,1.145,0,0,0-.461.428,1.172,1.172,0,0,0-.167.618v3.244h-1.063Z" transform="translate(-161.873 -44.61)" fill="#00479b"/>
      <path id="패스_36597" data-name="패스 36597" d="M307.468,80.879H304.51v-.835h2.958Zm-1.1-2.11V83.8a.9.9,0,0,0,.088.438.481.481,0,0,0,.226.213.841.841,0,0,0,.334.059q.137,0,.528-.021v.9a4.352,4.352,0,0,1-.658.045,1.92,1.92,0,0,1-.791-.159,1.343,1.343,0,0,1-.574-.478,1.366,1.366,0,0,1-.216-.783V78.769Z" transform="translate(-166.087 -43.145)" fill="#00479b"/>
      <path id="패스_36598" data-name="패스 36598" d="M316.6,81.6h1.056v5.323h-1.039v-.922h-.056a1.612,1.612,0,0,1-.354.513,1.654,1.654,0,0,1-.548.35,1.915,1.915,0,0,1-.715.128,1.831,1.831,0,0,1-.929-.231,1.559,1.559,0,0,1-.625-.682,2.442,2.442,0,0,1-.224-1.093V81.6h1.063v3.258a1.329,1.329,0,0,0,.141.625,1.018,1.018,0,0,0,.387.415,1.1,1.1,0,0,0,.571.146,1.292,1.292,0,0,0,.605-.152,1.234,1.234,0,0,0,.48-.451,1.346,1.346,0,0,0,.186-.727Z" transform="translate(-170.791 -44.706)" fill="#00479b"/>
      <path id="패스_36599" data-name="패스 36599" d="M325.745,81.521h1.039v.863h.088a.293.293,0,0,0,.017-.033c0-.01.011-.022.018-.033a2.471,2.471,0,0,1,.312-.414,1.448,1.448,0,0,1,.472-.317,1.781,1.781,0,0,1,.734-.135,2.146,2.146,0,0,1,1.173.327,2.171,2.171,0,0,1,.807.948,3.877,3.877,0,0,1,0,2.932,2.205,2.205,0,0,1-.8.956,2.105,2.105,0,0,1-1.169.333,1.793,1.793,0,0,1-.752-.142,1.5,1.5,0,0,1-.482-.331,2.374,2.374,0,0,1-.315-.435.065.065,0,0,0-.007-.012l-.007-.012h-.063V88.84h-1.064Zm1.208,3.644a1.442,1.442,0,0,0,.482.659,1.243,1.243,0,0,0,.76.234,1.256,1.256,0,0,0,.779-.242,1.472,1.472,0,0,0,.482-.667,2.949,2.949,0,0,0,0-1.918,1.4,1.4,0,0,0-.481-.652,1.3,1.3,0,0,0-.784-.236,1.282,1.282,0,0,0-.765.226,1.386,1.386,0,0,0-.479.641,2.636,2.636,0,0,0-.164.974,2.677,2.677,0,0,0,.166.982" transform="translate(-177.622 -44.622)" fill="#00479b"/>
      <path id="패스_36600" data-name="패스 36600" d="M341.209,82.462a1.158,1.158,0,0,0-.688-.185,1.469,1.469,0,0,0-.535.092.886.886,0,0,0-.371.257.547.547,0,0,0-.132.366.5.5,0,0,0,.2.407,1.58,1.58,0,0,0,.642.269l.866.194a2.305,2.305,0,0,1,1.109.526,1.219,1.219,0,0,1,.366.916,1.432,1.432,0,0,1-.266.854,1.743,1.743,0,0,1-.766.584,3.012,3.012,0,0,1-1.18.212,3.1,3.1,0,0,1-1.113-.182,1.687,1.687,0,0,1-.745-.532,1.719,1.719,0,0,1-.34-.849h1.088a.784.784,0,0,0,.343.544,1.368,1.368,0,0,0,.756.18,1.826,1.826,0,0,0,.6-.09.877.877,0,0,0,.394-.255.579.579,0,0,0,.138-.383.532.532,0,0,0-.2-.428,1.519,1.519,0,0,0-.632-.265l-.845-.184a2.183,2.183,0,0,1-1.1-.53,1.252,1.252,0,0,1-.379-.928,1.387,1.387,0,0,1,.262-.832,1.7,1.7,0,0,1,.738-.565,2.792,2.792,0,0,1,1.095-.2,2.681,2.681,0,0,1,1.039.187,1.671,1.671,0,0,1,.706.53,1.593,1.593,0,0,1,.308.8h-1.021a.847.847,0,0,0-.336-.511" transform="translate(-184.42 -44.622)" fill="#00479b"/>
      <path id="패스_36601" data-name="패스 36601" d="M356.751,84.756h-1.095v-7.1h1.095Zm-.539,0v-.943h1.725a2.774,2.774,0,0,0,1.359-.3,1.9,1.9,0,0,0,.815-.886,3.9,3.9,0,0,0,0-2.845,1.889,1.889,0,0,0-.8-.878A2.635,2.635,0,0,0,358,78.6h-1.827v-.943h1.894a3.7,3.7,0,0,1,1.82.423,2.819,2.819,0,0,1,1.169,1.221,4.642,4.642,0,0,1,0,3.8,2.828,2.828,0,0,1-1.189,1.226,3.835,3.835,0,0,1-1.868.427Z" transform="translate(-193.87 -42.534)" fill="#00479b"/>
      <path id="패스_36602" data-name="패스 36602" d="M370.37,78.183a.7.7,0,0,1-.247-.227.552.552,0,0,1-.093-.308.565.565,0,0,1,.093-.314.659.659,0,0,1,.247-.225.717.717,0,0,1,.664,0,.628.628,0,0,1,.245.225.581.581,0,0,1,.09.314.568.568,0,0,1-.09.308.66.66,0,0,1-.245.227.694.694,0,0,1-.664,0m-.206.9h1.063v5.323h-1.063Z" transform="translate(-201.678 -42.187)" fill="#00479b"/>
      <path id="패스_36603" data-name="패스 36603" d="M377.33,82.462a1.158,1.158,0,0,0-.688-.185,1.468,1.468,0,0,0-.535.092.882.882,0,0,0-.371.257.547.547,0,0,0-.133.366.5.5,0,0,0,.2.407,1.586,1.586,0,0,0,.643.269l.866.194a2.306,2.306,0,0,1,1.109.526,1.219,1.219,0,0,1,.366.916,1.432,1.432,0,0,1-.266.854,1.743,1.743,0,0,1-.766.584,3.012,3.012,0,0,1-1.18.212,3.1,3.1,0,0,1-1.113-.182,1.687,1.687,0,0,1-.745-.532,1.718,1.718,0,0,1-.34-.849h1.088a.783.783,0,0,0,.344.544,1.365,1.365,0,0,0,.755.18,1.826,1.826,0,0,0,.6-.09.877.877,0,0,0,.394-.255.579.579,0,0,0,.138-.383.533.533,0,0,0-.2-.428,1.52,1.52,0,0,0-.632-.265l-.845-.184a2.183,2.183,0,0,1-1.1-.53,1.251,1.251,0,0,1-.379-.928,1.387,1.387,0,0,1,.262-.832,1.7,1.7,0,0,1,.738-.565,2.792,2.792,0,0,1,1.095-.2,2.681,2.681,0,0,1,1.039.187,1.67,1.67,0,0,1,.706.53,1.594,1.594,0,0,1,.308.8h-1.021a.847.847,0,0,0-.336-.511" transform="translate(-204.042 -44.622)" fill="#00479b"/>
      <path id="패스_36604" data-name="패스 36604" d="M387.781,80.879h-2.958v-.835h2.958Zm-1.1-2.11V83.8a.893.893,0,0,0,.088.438.48.48,0,0,0,.225.213.844.844,0,0,0,.335.059q.137,0,.528-.021v.9a4.351,4.351,0,0,1-.658.045,1.922,1.922,0,0,1-.791-.159,1.342,1.342,0,0,1-.574-.478,1.363,1.363,0,0,1-.216-.783V78.769Z" transform="translate(-209.714 -43.145)" fill="#00479b"/>
      <path id="패스_36605" data-name="패스 36605" d="M393.015,81.508h1.028v.849h.057a1.347,1.347,0,0,1,.78-.818,1.576,1.576,0,0,1,.589-.11,3.974,3.974,0,0,1,.454.024v1c-.061-.014-.144-.028-.249-.042a2.327,2.327,0,0,0-.3-.021,1.42,1.42,0,0,0-.664.153,1.139,1.139,0,0,0-.461.428,1.167,1.167,0,0,0-.168.618v3.244h-1.063Z" transform="translate(-214.164 -44.61)" fill="#00479b"/>
      <path id="패스_36606" data-name="패스 36606" d="M400.6,78.183a.694.694,0,0,1-.246-.227.549.549,0,0,1-.094-.308.562.562,0,0,1,.094-.314.658.658,0,0,1,.246-.225.717.717,0,0,1,.664,0,.625.625,0,0,1,.245.225.581.581,0,0,1,.09.314.567.567,0,0,1-.09.308.657.657,0,0,1-.245.227.694.694,0,0,1-.664,0m-.206.9h1.063v5.323H400.4Z" transform="translate(-218.102 -42.187)" fill="#00479b"/>
      <path id="패스_36607" data-name="패스 36607" d="M405.349,77.659h1.063V80.3h.057a.375.375,0,0,1,.023-.04c.008-.013.015-.026.023-.04a2.44,2.44,0,0,1,.313-.413,1.447,1.447,0,0,1,.471-.308,1.8,1.8,0,0,1,.727-.132,2.145,2.145,0,0,1,1.172.327,2.191,2.191,0,0,1,.81.948,3.406,3.406,0,0,1,.292,1.466,3.443,3.443,0,0,1-.291,1.466,2.22,2.22,0,0,1-.8.956,2.1,2.1,0,0,1-1.169.333,1.782,1.782,0,0,1-.742-.139,1.522,1.522,0,0,1-.48-.324,2.291,2.291,0,0,1-.317-.424.226.226,0,0,0-.013-.022.259.259,0,0,0-.016-.022h-.081v.828h-1.038Zm1.2,5.418a1.44,1.44,0,0,0,.484.659,1.357,1.357,0,0,0,1.535-.009,1.462,1.462,0,0,0,.484-.667,2.7,2.7,0,0,0,.162-.965,2.658,2.658,0,0,0-.159-.953,1.4,1.4,0,0,0-.48-.652,1.414,1.414,0,0,0-1.548-.01,1.384,1.384,0,0,0-.481.641,2.646,2.646,0,0,0-.164.974,2.689,2.689,0,0,0,.166.982" transform="translate(-220.864 -42.534)" fill="#00479b"/>
      <path id="패스_36608" data-name="패스 36608" d="M421.374,81.6h1.057v5.323h-1.039v-.922h-.056a1.621,1.621,0,0,1-.354.513,1.655,1.655,0,0,1-.548.35,1.914,1.914,0,0,1-.715.128,1.833,1.833,0,0,1-.929-.231,1.559,1.559,0,0,1-.625-.682,2.443,2.443,0,0,1-.224-1.093V81.6H419v3.258a1.323,1.323,0,0,0,.141.625,1.018,1.018,0,0,0,.387.415,1.1,1.1,0,0,0,.571.146,1.292,1.292,0,0,0,.606-.152,1.232,1.232,0,0,0,.479-.451,1.35,1.35,0,0,0,.186-.727Z" transform="translate(-227.704 -44.706)" fill="#00479b"/>
      <path id="패스_36609" data-name="패스 36609" d="M432.066,80.879h-2.958v-.835h2.958Zm-1.1-2.11V83.8a.893.893,0,0,0,.088.438.48.48,0,0,0,.225.213.846.846,0,0,0,.335.059q.137,0,.528-.021v.9a4.35,4.35,0,0,1-.658.045,1.922,1.922,0,0,1-.791-.159,1.341,1.341,0,0,1-.574-.478,1.362,1.362,0,0,1-.217-.783V78.769Z" transform="translate(-233.77 -43.145)" fill="#00479b"/>
      <path id="패스_36610" data-name="패스 36610" d="M437.345,78.183a.7.7,0,0,1-.246-.227.553.553,0,0,1-.093-.308.566.566,0,0,1,.093-.314.662.662,0,0,1,.246-.225.718.718,0,0,1,.664,0,.627.627,0,0,1,.245.225.581.581,0,0,1,.09.314.567.567,0,0,1-.09.308.66.66,0,0,1-.245.227.695.695,0,0,1-.664,0m-.206.9H438.2v5.323H437.14Z" transform="translate(-238.06 -42.187)" fill="#00479b"/>
      <path id="패스_36611" data-name="패스 36611" d="M442.574,86.608a2.305,2.305,0,0,1-.888-.965,3.473,3.473,0,0,1,0-2.881,2.3,2.3,0,0,1,.888-.967,2.734,2.734,0,0,1,2.654,0,2.3,2.3,0,0,1,.883.967,3.487,3.487,0,0,1,0,2.881,2.3,2.3,0,0,1-.883.965,2.737,2.737,0,0,1-2.654,0m2.129-.78a1.5,1.5,0,0,0,.488-.676,2.87,2.87,0,0,0,0-1.9,1.527,1.527,0,0,0-.488-.679,1.261,1.261,0,0,0-.8-.253,1.28,1.28,0,0,0-.8.251,1.536,1.536,0,0,0-.491.679,2.815,2.815,0,0,0,0,1.9,1.522,1.522,0,0,0,.491.676,1.411,1.411,0,0,0,1.6,0" transform="translate(-240.433 -44.622)" fill="#00479b"/>
      <path id="패스_36612" data-name="패스 36612" d="M455.238,86.844h-1.063V81.52H455.2v.87h.067a1.606,1.606,0,0,1,.351-.5,1.5,1.5,0,0,1,.533-.326,2.063,2.063,0,0,1,.712-.115,1.981,1.981,0,0,1,.971.229,1.544,1.544,0,0,1,.643.681,2.42,2.42,0,0,1,.227,1.1v3.386h-1.063V83.586a1.492,1.492,0,0,0-.136-.66.952.952,0,0,0-.392-.425,1.227,1.227,0,0,0-.612-.146,1.307,1.307,0,0,0-.651.158,1.12,1.12,0,0,0-.444.457,1.488,1.488,0,0,0-.162.716Z" transform="translate(-247.387 -44.622)" fill="#00479b"/>
      <path id="패스_36613" data-name="패스 36613" d="M471.815,84.508A1.946,1.946,0,0,1,471,83.8a1.864,1.864,0,0,1-.287-1.023,1.587,1.587,0,0,1,.178-.752,2.227,2.227,0,0,1,.486-.613,7.4,7.4,0,0,1,.794-.606L473.334,80a2.107,2.107,0,0,0,.341-.268.989.989,0,0,0,.208-.3.875.875,0,0,0,.074-.367.613.613,0,0,0-.1-.329.782.782,0,0,0-.285-.267.874.874,0,0,0-.852.013.855.855,0,0,0-.3.309.787.787,0,0,0-.11.4.944.944,0,0,0,.1.412,2.458,2.458,0,0,0,.255.415q.153.2.424.525l.155.187,3.352,3.937h-1.2l-2.775-3.2-.247-.284q-.37-.43-.581-.714a2.953,2.953,0,0,1-.349-.609,1.734,1.734,0,0,1-.137-.684,1.664,1.664,0,0,1,.229-.872,1.568,1.568,0,0,1,.64-.6,2.245,2.245,0,0,1,1.9-.005,1.54,1.54,0,0,1,.629.565,1.452,1.452,0,0,1,.22.776,1.616,1.616,0,0,1-.113.61,1.827,1.827,0,0,1-.323.524,3.024,3.024,0,0,1-.521.464l-1.448,1.049a2.309,2.309,0,0,0-.429.392,1.663,1.663,0,0,0-.243.376.758.758,0,0,0-.078.3,1.057,1.057,0,0,0,.16.565,1.13,1.13,0,0,0,.456.412,1.448,1.448,0,0,0,.673.152,1.942,1.942,0,0,0,1.036-.308,2.312,2.312,0,0,0,.807-.867,2.59,2.59,0,0,0,.308-1.272h.958a3.867,3.867,0,0,1-.144,1.118,2.662,2.662,0,0,1-.352.77,2.817,2.817,0,0,1-.468.514l-.12.111c-.04.037-.081.074-.124.111a2.372,2.372,0,0,1-.867.526,3.1,3.1,0,0,1-1.041.182,2.812,2.812,0,0,1-1.237-.256" transform="translate(-256.369 -42.441)" fill="#00479b"/>
      <path id="패스_36614" data-name="패스 36614" d="M490.978,77.659l2.289,5.5h.085l2.285-5.5h1.335v7.1h-1.046V79.634h-.068l-2.12,5.112h-.866l-2.12-5.122h-.06v5.132h-1.049v-7.1Z" transform="translate(-266.653 -42.535)" fill="#00479b"/>
      <path id="패스_36615" data-name="패스 36615" d="M510.5,84.472l-.734.05a1.66,1.66,0,0,0-.835.245.674.674,0,0,0-.3.587.686.686,0,0,0,.131.423.792.792,0,0,0,.361.262,1.476,1.476,0,0,0,.53.089,1.556,1.556,0,0,0,.737-.167,1.193,1.193,0,0,0,.481-.442,1.136,1.136,0,0,0,.166-.594l0-1.681a1,1,0,0,0-.125-.515.785.785,0,0,0-.371-.322,1.5,1.5,0,0,0-.606-.109,1.524,1.524,0,0,0-.532.085,1.013,1.013,0,0,0-.378.237.782.782,0,0,0-.2.354h-1.06a1.5,1.5,0,0,1,.336-.787,1.861,1.861,0,0,1,.766-.541,2.952,2.952,0,0,1,1.109-.194,3.148,3.148,0,0,1,.993.156,1.687,1.687,0,0,1,.8.572,1.775,1.775,0,0,1,.329,1.13v3.535h-1.035v-.728h-.043a1.438,1.438,0,0,1-.32.411,1.663,1.663,0,0,1-.532.312,2.089,2.089,0,0,1-.746.123,2.223,2.223,0,0,1-.933-.19,1.526,1.526,0,0,1-.655-.557,1.564,1.564,0,0,1-.239-.875,1.274,1.274,0,0,1,.569-1.175,3.146,3.146,0,0,1,1.453-.416q.246-.017.579-.035l.625-.031c.127-.007.219-.01.278-.01l.014.762q-.19.006-.611.036" transform="translate(-276.404 -44.622)" fill="#00479b"/>
      <path id="패스_36616" data-name="패스 36616" d="M519.708,81.508h1.028v.849h.057a1.348,1.348,0,0,1,.78-.818,1.578,1.578,0,0,1,.589-.11,3.987,3.987,0,0,1,.454.024v1c-.061-.014-.144-.028-.25-.042a2.329,2.329,0,0,0-.3-.021,1.422,1.422,0,0,0-.664.153,1.141,1.141,0,0,0-.461.428,1.169,1.169,0,0,0-.167.618v3.244h-1.063Z" transform="translate(-282.985 -44.61)" fill="#00479b"/>
      <path id="패스_36617" data-name="패스 36617" d="M527.252,77.659h1.063v7.1h-1.063Zm.972,4.023h.184l2.144-2.249h1.271L529.368,82H529.2l-.968.954Zm.514.551.732-.735,2.5,3.258h-1.3Z" transform="translate(-287.083 -42.534)" fill="#00479b"/>
      <path id="패스_36618" data-name="패스 36618" d="M538.715,86.614a2.253,2.253,0,0,1-.894-.955,3.158,3.158,0,0,1-.312-1.442,3.2,3.2,0,0,1,.312-1.44,2.334,2.334,0,0,1,.878-.977,2.45,2.45,0,0,1,1.31-.348,2.592,2.592,0,0,1,1.2.279,2.086,2.086,0,0,1,.875.879,3.115,3.115,0,0,1,.331,1.517V84.5H538.1v-.784h3.264a1.539,1.539,0,0,0-.167-.724,1.223,1.223,0,0,0-.474-.5,1.364,1.364,0,0,0-.7-.18,1.4,1.4,0,0,0-.76.208,1.428,1.428,0,0,0-.512.551,1.6,1.6,0,0,0-.185.745v.606a1.957,1.957,0,0,0,.19.9,1.355,1.355,0,0,0,.535.574,1.573,1.573,0,0,0,.8.2,1.685,1.685,0,0,0,.523-.076,1.225,1.225,0,0,0,.4-.208,1.014,1.014,0,0,0,.254-.3h1.077a1.794,1.794,0,0,1-.426.761,2.03,2.03,0,0,1-.778.506,2.962,2.962,0,0,1-1.053.178,2.69,2.69,0,0,1-1.371-.338" transform="translate(-292.655 -44.622)" fill="#00479b"/>
      <path id="패스_36619" data-name="패스 36619" d="M552.01,80.879h-2.958v-.835h2.958Zm-1.1-2.11V83.8a.892.892,0,0,0,.088.438.48.48,0,0,0,.225.213.845.845,0,0,0,.334.059c.092,0,.268-.007.528-.021v.9a4.351,4.351,0,0,1-.658.045,1.922,1.922,0,0,1-.791-.159,1.341,1.341,0,0,1-.574-.478,1.362,1.362,0,0,1-.217-.783V78.769Z" transform="translate(-298.925 -43.145)" fill="#00479b"/>
      <path id="패스_36620" data-name="패스 36620" d="M557.29,78.183a.694.694,0,0,1-.246-.227.55.55,0,0,1-.094-.308.563.563,0,0,1,.094-.314.659.659,0,0,1,.246-.225.717.717,0,0,1,.664,0,.625.625,0,0,1,.245.225.581.581,0,0,1,.09.314.567.567,0,0,1-.09.308.657.657,0,0,1-.245.227.693.693,0,0,1-.664,0m-.206.9h1.063v5.323h-1.063Z" transform="translate(-303.215 -42.187)" fill="#00479b"/>
      <path id="패스_36621" data-name="패스 36621" d="M562.913,86.844H561.85V81.52h1.021v.87h.067a1.607,1.607,0,0,1,.351-.5,1.508,1.508,0,0,1,.533-.326,2.062,2.062,0,0,1,.712-.115,1.985,1.985,0,0,1,.972.229,1.546,1.546,0,0,1,.643.681,2.42,2.42,0,0,1,.227,1.1v3.386h-1.063V83.586a1.493,1.493,0,0,0-.136-.66.954.954,0,0,0-.393-.425,1.227,1.227,0,0,0-.612-.146,1.307,1.307,0,0,0-.651.158,1.12,1.12,0,0,0-.444.457,1.49,1.49,0,0,0-.162.716Z" transform="translate(-305.877 -44.622)" fill="#00479b"/>
      <path id="패스_36622" data-name="패스 36622" d="M574.81,88.763a1.879,1.879,0,0,1-.817-.549,1.515,1.515,0,0,1-.347-.852h1.084a.79.79,0,0,0,.218.417,1.041,1.041,0,0,0,.44.251,2.142,2.142,0,0,0,.63.084,1.576,1.576,0,0,0,1.015-.293,1.089,1.089,0,0,0,.363-.9V85.874h-.071l-.014.024a2.185,2.185,0,0,1-.308.414,1.479,1.479,0,0,1-.484.316,1.9,1.9,0,0,1-.761.137,2.2,2.2,0,0,1-1.161-.31,2.134,2.134,0,0,1-.808-.9,3.156,3.156,0,0,1-.3-1.422,3.261,3.261,0,0,1,.294-1.435,2.155,2.155,0,0,1,.809-.923,2.192,2.192,0,0,1,1.171-.317,1.8,1.8,0,0,1,.734.135,1.448,1.448,0,0,1,.474.314,2.706,2.706,0,0,1,.317.41c.015.023.028.048.042.073h.07v-.863h1.039v5.438a1.9,1.9,0,0,1-.311,1.113,1.847,1.847,0,0,1-.863.664,3.431,3.431,0,0,1-1.262.216,3.474,3.474,0,0,1-1.2-.189m1.951-3.072a1.33,1.33,0,0,0,.481-.6,2.41,2.41,0,0,0,.165-.939,2.556,2.556,0,0,0-.162-.948,1.381,1.381,0,0,0-.481-.633,1.3,1.3,0,0,0-.766-.225,1.282,1.282,0,0,0-.778.234,1.421,1.421,0,0,0-.483.642,2.508,2.508,0,0,0-.162.929,2.351,2.351,0,0,0,.166.92,1.367,1.367,0,0,0,.482.613,1.324,1.324,0,0,0,.775.22,1.339,1.339,0,0,0,.762-.211" transform="translate(-312.203 -44.622)" fill="#00479b"/>
      <path id="패스_36623" data-name="패스 36623" d="M590.493,84.756l2.591-7.1h1.271l2.592,7.1h-1.166l-2.035-5.8h-.056l-2.036,5.8Zm5.1-1.875h-3.75v-.9h3.75Z" transform="translate(-321.436 -42.534)" fill="#00479b"/>
      <path id="패스_36624" data-name="패스 36624" d="M606.483,88.763a1.88,1.88,0,0,1-.817-.549,1.515,1.515,0,0,1-.347-.852H606.4a.79.79,0,0,0,.219.417,1.039,1.039,0,0,0,.44.251,2.146,2.146,0,0,0,.63.084,1.575,1.575,0,0,0,1.014-.293,1.089,1.089,0,0,0,.363-.9V85.874H609l-.014.024a2.191,2.191,0,0,1-.308.414,1.481,1.481,0,0,1-.484.316,1.9,1.9,0,0,1-.761.137,2.2,2.2,0,0,1-1.16-.31,2.133,2.133,0,0,1-.808-.9,3.159,3.159,0,0,1-.3-1.422,3.261,3.261,0,0,1,.294-1.435,2.155,2.155,0,0,1,.81-.923,2.189,2.189,0,0,1,1.171-.317,1.8,1.8,0,0,1,.734.135,1.447,1.447,0,0,1,.474.314,2.694,2.694,0,0,1,.316.41c.015.023.029.048.043.073h.07v-.863h1.039v5.438a1.9,1.9,0,0,1-.312,1.113,1.848,1.848,0,0,1-.862.664,3.436,3.436,0,0,1-1.263.216,3.474,3.474,0,0,1-1.2-.189m1.951-3.072a1.329,1.329,0,0,0,.481-.6,2.408,2.408,0,0,0,.165-.939,2.56,2.56,0,0,0-.161-.948,1.382,1.382,0,0,0-.481-.633,1.3,1.3,0,0,0-.766-.225,1.281,1.281,0,0,0-.778.234,1.42,1.42,0,0,0-.483.642,2.512,2.512,0,0,0-.161.929,2.359,2.359,0,0,0,.165.92,1.372,1.372,0,0,0,.482.613,1.324,1.324,0,0,0,.775.22,1.339,1.339,0,0,0,.762-.211" transform="translate(-329.408 -44.622)" fill="#00479b"/>
      <path id="패스_36625" data-name="패스 36625" d="M618.958,86.614a2.253,2.253,0,0,1-.894-.955,3.157,3.157,0,0,1-.311-1.442,3.2,3.2,0,0,1,.311-1.44,2.334,2.334,0,0,1,.878-.977,2.45,2.45,0,0,1,1.31-.348,2.592,2.592,0,0,1,1.2.279,2.081,2.081,0,0,1,.875.879,3.107,3.107,0,0,1,.331,1.517V84.5h-4.31v-.784h3.264a1.539,1.539,0,0,0-.167-.724,1.227,1.227,0,0,0-.474-.5,1.364,1.364,0,0,0-.7-.18,1.4,1.4,0,0,0-.761.208,1.427,1.427,0,0,0-.512.551,1.6,1.6,0,0,0-.185.745v.606a1.958,1.958,0,0,0,.19.9,1.356,1.356,0,0,0,.535.574,1.577,1.577,0,0,0,.8.2,1.685,1.685,0,0,0,.523-.076,1.226,1.226,0,0,0,.4-.208,1.013,1.013,0,0,0,.254-.3h1.077a1.792,1.792,0,0,1-.426.761,2.029,2.029,0,0,1-.778.506,2.961,2.961,0,0,1-1.053.178,2.69,2.69,0,0,1-1.371-.338" transform="translate(-336.244 -44.622)" fill="#00479b"/>
      <path id="패스_36626" data-name="패스 36626" d="M631.3,86.844h-1.063V81.52h1.021v.87h.067a1.608,1.608,0,0,1,.351-.5,1.5,1.5,0,0,1,.533-.326,2.062,2.062,0,0,1,.712-.115,1.981,1.981,0,0,1,.971.229,1.545,1.545,0,0,1,.643.681,2.428,2.428,0,0,1,.227,1.1v3.386H633.7V83.586a1.492,1.492,0,0,0-.136-.66.951.951,0,0,0-.393-.425,1.225,1.225,0,0,0-.612-.146,1.31,1.31,0,0,0-.652.158,1.121,1.121,0,0,0-.444.457,1.488,1.488,0,0,0-.162.716Z" transform="translate(-343.025 -44.622)" fill="#00479b"/>
      <path id="패스_36627" data-name="패스 36627" d="M643.058,86.6a2.3,2.3,0,0,1-.878-.972,3.452,3.452,0,0,1,.005-2.857,2.33,2.33,0,0,1,.882-.974,2.487,2.487,0,0,1,1.324-.348,2.634,2.634,0,0,1,1.1.222,1.923,1.923,0,0,1,.785.631,1.886,1.886,0,0,1,.349.939h-1.032a1.205,1.205,0,0,0-.211-.466,1.064,1.064,0,0,0-.4-.329,1.3,1.3,0,0,0-.572-.12,1.32,1.32,0,0,0-.767.227,1.484,1.484,0,0,0-.512.647,2.427,2.427,0,0,0-.183.981,2.545,2.545,0,0,0,.18,1,1.474,1.474,0,0,0,.51.655,1.314,1.314,0,0,0,.772.23,1.33,1.33,0,0,0,.548-.109,1.085,1.085,0,0,0,.408-.312,1.2,1.2,0,0,0,.231-.487h1.032a1.919,1.919,0,0,1-1.113,1.565,2.772,2.772,0,0,1-2.452-.118" transform="translate(-349.346 -44.622)" fill="#00479b"/>
      <path id="패스_36628" data-name="패스 36628" d="M653.5,88.9l.006-.877c.028,0,.057,0,.086,0s.061,0,.093,0c.092,0,.19.007.3.007a1.334,1.334,0,0,0,.34-.036.55.55,0,0,0,.265-.189,1.612,1.612,0,0,0,.25-.468l.134-.347-1.983-5.4h1.138l1.362,4.128h.057l1.37-4.128h1.137l-2.228,6.03a2.06,2.06,0,0,1-.666.965,1.756,1.756,0,0,1-1.088.324q-.366,0-.57-.021" transform="translate(-355.386 -44.707)" fill="#00479b"/>
    </g>
  </g>
</svg>
